# xmcd
#
# Track frame offsets:
#	150
#	6670
#	10665
#	14615
#	21840
#	30287
#	38335
#	45577
#	53702
#	57090
#	61082
#	64840
#	69665
#	77747
#	80557
#	87595
#	93057
#	105497
#	110905
#	116212
#	119802
#	127075
#	133452
#	140065
#	147397
#	150635
#	157897
#	163870
#	170170
#	176337
#
# Disc length: 2426 seconds
#
# Revision: 1
# Processed by: cddbd v1.5.1PL0 Copyright (c) Steve Scherf et al.
# Submitted via: CDex 1.50Beta5
#
DISCID=a609781e
DTITLE=茂森あゆみ・速水けんたろう - 童謡ベストコレクション
DYEAR=1900
DGENRE=
TTITLE0=おはなしゆびさん
TTITLE1=ぞうさん
TTITLE2=しゃぼんだま
TTITLE3=はるがきた
TTITLE4=きしゃポッポ
TTITLE5=うれしいひなまつり
TTITLE6=めだかのがっこう
TTITLE7=もうすぐようちえん
TTITLE8=チューリップ
TTITLE9=おなかのへるうた
TTITLE10=ちょうちょう
TTITLE11=おかあさん
TTITLE12=とんでったバナナ
TTITLE13=ぶんぶんぶん
TTITLE14=いぬのおまわりさん
TTITLE15=かえるのがっしょう
TTITLE16=きみのなまえ
TTITLE17=げんこつやまのたぬきさん
TTITLE18=こいのぼり
TTITLE19=ことりのうた
TTITLE20=くつがなる
TTITLE21=かわいいかくれんぼ
TTITLE22=ドロップスのうた
TTITLE23=あめふりくまのこ
TTITLE24=おつかいありさん
TTITLE25=アイアイ
TTITLE26=あめふり
TTITLE27=かたつむり
TTITLE28=たなばたさま
TTITLE29=うみ
EXTD=
EXTT0=
EXTT1=
EXTT2=
EXTT3=
EXTT4=
EXTT5=
EXTT6=
EXTT7=
EXTT8=
EXTT9=
EXTT10=
EXTT11=
EXTT12=
EXTT13=
EXTT14=
EXTT15=
EXTT16=
EXTT17=
EXTT18=
EXTT19=
EXTT20=
EXTT21=
EXTT22=
EXTT23=
EXTT24=
EXTT25=
EXTT26=
EXTT27=
EXTT28=
EXTT29=
PLAYORDER=
